<svg width="38" height="50" viewBox="0 0 38 50" fill="none" xmlns="http://www.w3.org/2000/svg">
<path d="M35.666 0.833333C35.666 0.373096 35.2929 0 34.8327 0C34.3725 0 33.9994 0.373096 33.9994 0.833333C34.0525 3.67901 33.581 6.51012 32.6085 9.185C30.2852 9.2721 28.0085 9.86295 25.936 10.9167C23.7376 12.0837 22.0448 14.018 21.1794 16.3517C20.4764 16.582 19.7388 16.6886 18.9994 16.6667C18.2598 16.6878 17.5222 16.5804 16.8194 16.3492C15.9534 14.0164 14.2606 12.0831 12.0627 10.9167C9.9896 9.86334 7.71228 9.27332 5.38852 9.1875C4.41247 6.51274 3.94143 3.68003 3.99935 0.833333C3.99935 0.373096 3.62626 0 3.16602 0C2.70578 0 2.33269 0.373096 2.33269 0.833333C2.27262 3.88583 2.78129 6.92283 3.83269 9.78917C1.80145 11.8412 0.663264 14.6127 0.666021 17.5C0.666021 22.7958 3.71602 25.8333 9.03519 25.8333C12.3184 25.7216 15.4582 24.4608 17.9069 22.2708L17.9119 22.2633L17.9194 22.2583C18.2111 21.9562 18.5877 21.7499 18.9994 21.6667C19.4099 21.7494 19.7856 21.9549 20.0769 22.2558L20.086 22.2617L20.0919 22.2708C22.5405 24.4608 25.6803 25.7216 28.9635 25.8333C34.2827 25.8333 37.3327 22.7958 37.3327 17.5C37.3354 14.6127 36.1973 11.8412 34.166 9.78917C35.2174 6.92283 35.7261 3.88583 35.666 0.833333ZM9.03519 24.1667C4.65019 24.1667 2.33269 21.8608 2.33269 17.5C2.34453 14.9912 3.35828 12.591 5.14852 10.8333C7.30857 10.8818 9.42896 11.4234 11.3477 12.4167C15.2152 14.25 16.2394 19.7717 16.4527 21.3242C14.3622 23.0652 11.7538 24.0647 9.03519 24.1667ZM17.9694 20.2433C17.8437 19.5617 17.6824 18.8872 17.486 18.2225C17.9868 18.2986 18.4928 18.3356 18.9994 18.3333C19.5058 18.3356 20.0118 18.2992 20.5127 18.2242C20.3162 18.8883 20.1549 19.5623 20.0294 20.2433C19.381 19.9189 18.6177 19.9189 17.9694 20.2433ZM28.9635 24.1667C26.2464 24.0598 23.6401 23.0614 21.5469 21.3258C21.761 19.7717 22.786 14.255 26.6519 12.4192C28.571 11.425 30.6919 10.8826 32.8527 10.8333C34.6488 12.5868 35.6629 14.9899 35.666 17.5C35.666 21.8608 33.3485 24.1667 28.9635 24.1667Z" fill="white"/>
<path d="M33.1667 30H4.83333C4.54085 30.0001 4.2698 30.1534 4.11917 30.4042C4.0125 30.5833 1.5 34.8192 1.5 39.1667C1.50003 39.399 1.59699 39.6207 1.7675 39.7784C1.93932 39.934 2.16703 40.0131 2.39833 39.9975C2.41167 39.9975 2.78417 39.9717 3.38 39.9859C4.11333 42.845 6.7725 44.4026 9.46333 45.7459C10.7972 46.406 12.0933 47.1396 13.3458 47.9434C13.9749 48.3572 14.6253 48.7377 15.2942 49.0834C16.4543 49.6377 17.7152 49.9496 19 50.0001C20.2847 49.9496 21.5457 49.6377 22.7058 49.0834C23.3755 48.7391 24.0267 48.36 24.6567 47.9476C25.9092 47.1438 27.2053 46.4102 28.5392 45.7501C31.2275 44.4051 33.8858 42.85 34.6225 39.9909C35.2192 39.9767 35.5925 40.0009 35.6058 40.0017C35.8371 40.0176 36.0648 39.9381 36.2358 39.7817C36.406 39.6226 36.5018 39.3996 36.5 39.1667C36.5 34.8192 33.9875 30.5833 33.8808 30.4042C33.7302 30.1534 33.4592 30.0001 33.1667 30ZM10.2058 44.2501C7.60167 42.9475 5.88417 41.7867 5.195 40.1267C7.28466 40.3629 9.28111 41.1218 11 42.3334C12.3911 43.4278 13.4809 44.8583 14.1667 46.4901C12.8884 45.6727 11.5661 44.9262 10.2058 44.2542V44.2501ZM27.7942 44.2501C26.4339 44.9249 25.1116 45.6738 23.8333 46.4934C24.5178 44.8599 25.6077 43.4281 27 42.3334C28.7194 41.1252 30.7151 40.3689 32.8033 40.1342C32.1133 41.7925 30.3967 42.9525 27.7942 44.2542V44.2501ZM26 41C23.8572 42.72 22.3224 45.0818 21.6208 47.7384C20.791 48.0954 19.9027 48.2971 19 48.3334C18.0973 48.2971 17.209 48.0954 16.3792 47.7384C15.6776 45.0818 14.1428 42.72 12 41C9.4114 39.226 6.34138 38.2878 3.20333 38.3117C3.31086 37.1844 3.54769 36.0732 3.90917 35H14C14.4602 35 14.8333 34.6269 14.8333 34.1667C14.8333 33.7064 14.4602 33.3333 14 33.3333H4.5325C4.83917 32.61 5.1325 32.025 5.32333 31.6667H32.6767C32.8675 32.025 33.1608 32.61 33.4675 33.3333H24C23.5398 33.3333 23.1667 33.7064 23.1667 34.1667C23.1667 34.6269 23.5398 35 24 35H34.0908C34.4523 36.0732 34.6891 37.1844 34.7967 38.3117C31.6586 38.2876 28.5885 39.2258 26 41Z" fill="white"/>
<path d="M20.6666 33.3333C20.09 33.3204 19.5187 33.4453 19 33.6975C18.4813 33.4453 17.9099 33.3204 17.3333 33.3333C16.8731 33.3333 16.5 33.7064 16.5 34.1666C16.5 34.6269 16.8731 34.9999 17.3333 34.9999C17.622 35.0008 17.9084 35.0512 18.18 35.1491C18.2518 35.5456 18.597 35.834 19 35.834C19.403 35.834 19.7482 35.5456 19.82 35.1491C20.0914 35.0507 20.3779 35.0002 20.6666 34.9999C21.1269 34.9999 21.5 34.6269 21.5 34.1666C21.5 33.7064 21.1269 33.3333 20.6666 33.3333Z" fill="white"/>
</svg>
