<svg width="50" height="50" viewBox="0 0 50 50" fill="none" xmlns="http://www.w3.org/2000/svg">
<path d="M49.9996 27.9675C50.0384 23.7889 48.2146 19.81 45.0238 17.1116C45.1355 14.8333 45.143 7.49997 41.1705 1.88414C40.7905 1.34395 40.2102 0.978277 39.5589 0.868688C38.9076 0.759099 38.2396 0.914708 37.7038 1.30081C37.0526 1.77321 36.6669 2.5288 36.6663 3.33331V18.505C36.2396 18.7141 35.8063 18.9325 35.353 19.1716C29.1713 22.395 27.7946 32.0883 27.5488 34.4366C26.7401 34.7769 25.8764 34.9677 24.9996 35C24.1226 34.9667 23.259 34.7747 22.4505 34.4333C22.2046 32.0833 20.828 22.3916 14.6463 19.1666C14.193 18.9308 13.7596 18.7125 13.333 18.5V3.33331C13.3324 2.52813 12.9464 1.77189 12.2946 1.29914C11.7626 0.913163 11.0978 0.757308 10.4496 0.86664C9.79424 0.975048 9.2099 1.34228 8.82796 1.88581C4.8563 7.49997 4.8638 14.8333 4.97546 17.1116C1.78465 19.81 -0.0390979 23.7889 -0.000372095 27.9675C-0.000372095 31.4816 0.883795 34.325 2.49963 36.3691V42.5C2.49942 43.8722 3.1749 45.1566 4.30569 45.9341C5.43649 46.7115 6.87758 46.8824 8.1588 46.3908C8.91698 47.5975 10.2412 48.3309 11.6663 48.3333C12.3518 48.3343 13.0266 48.1624 13.628 47.8333C14.3891 48.661 15.4552 49.1421 16.5795 49.1651C17.7038 49.188 18.7886 48.7509 19.583 47.955C21.0412 49.4188 23.3589 49.5743 24.9996 48.3183C26.6403 49.5743 28.958 49.4188 30.4163 47.955C31.2106 48.7509 32.2955 49.188 33.4198 49.1651C34.544 49.1421 35.6102 48.661 36.3713 47.8333C36.9727 48.1624 37.6474 48.3343 38.333 48.3333C39.7581 48.3309 41.0823 47.5975 41.8405 46.3908C43.1217 46.8824 44.5628 46.7115 45.6936 45.9341C46.8244 45.1566 47.4998 43.8722 47.4996 42.5V36.3691C49.1155 34.325 49.9996 31.4816 49.9996 27.9675ZM39.2496 38.3333C36.7215 38.2918 34.2403 37.6439 32.0146 36.4441C32.373 33.7825 33.8538 25.7508 38.898 23.1191C41.5038 21.76 43.1246 20.93 46.148 20.8466C47.5844 22.9424 48.3467 25.4268 48.333 27.9675C48.333 34.555 45.0221 38.3333 39.2496 38.3333ZM38.678 2.65164C38.8505 2.52654 39.066 2.47582 39.2763 2.51081C39.4924 2.54717 39.6848 2.66876 39.8105 2.84831C43.3105 7.79081 43.458 14.255 43.3738 16.6941C42.8112 16.7133 42.2499 16.7612 41.6921 16.8375C41.7355 13.9841 41.4321 8.00414 38.4863 3.81664C38.2213 3.44057 38.3065 2.92148 38.678 2.64997V2.65164ZM38.333 6.97747C39.9838 10.7825 40.0638 15.35 40.0146 17.1941C39.4439 17.3489 38.8824 17.5362 38.333 17.755V6.97747ZM36.123 20.6441C36.7138 20.3358 37.2596 20.0608 37.7896 19.805C37.8165 19.7942 37.8427 19.7816 37.868 19.7675C39.7343 18.8244 41.7961 18.3331 43.8871 18.3333C44.2363 18.6198 44.5667 18.9285 44.8763 19.2575C42.1888 19.535 40.4146 20.4466 38.073 21.6675C32.8005 24.4175 31.0246 31.88 30.4596 35.535C29.898 35.1691 29.4688 34.8483 29.2046 34.6383C29.4296 32.5741 30.7196 23.4633 36.123 20.6466V20.6441ZM20.7946 34.6408C20.5305 34.8508 20.1013 35.1716 19.5388 35.5375C18.9738 31.8825 17.1913 24.4183 11.8721 21.6408C9.5763 20.4433 7.80796 19.535 5.11213 19.2591C5.4237 18.9287 5.75694 18.6194 6.10963 18.3333C8.20062 18.3336 10.2623 18.8249 12.1288 19.7675C12.1538 19.7816 12.1797 19.7942 12.2063 19.805C12.7388 20.055 13.2896 20.3358 13.873 20.6441C19.2796 23.4633 20.5696 32.5741 20.7946 34.6408ZM9.9763 17.1916C9.92713 15.3458 10.0088 10.775 11.6663 6.97164V17.755C11.1143 17.5349 10.55 17.3468 9.9763 17.1916ZM10.188 2.84997C10.3135 2.66961 10.5063 2.54737 10.723 2.51081C10.933 2.47586 11.1482 2.52659 11.3205 2.65164C11.6919 2.9234 11.7761 3.4431 11.5096 3.81831C8.5613 8.00664 8.25963 13.985 8.29963 16.8341C7.74436 16.7582 7.18558 16.7106 6.62546 16.6916C6.5413 14.255 6.6913 7.79081 10.188 2.84997ZM3.83296 20.8466C6.8738 20.93 8.49963 21.7633 11.1588 23.1475C16.1521 25.7533 17.6288 33.7833 17.9871 36.4441C15.7607 37.6443 13.2786 38.2922 10.7496 38.3333C4.97713 38.3333 1.66629 34.555 1.66629 27.9675C1.64613 25.4286 2.40209 22.9441 3.83296 20.8466ZM43.333 45C42.8353 45.002 42.3488 44.8526 41.938 44.5716C41.7232 44.4242 41.4519 44.3856 41.2046 44.4674C40.9573 44.5492 40.7625 44.7419 40.678 44.9883C40.4151 45.7686 39.7806 46.3666 38.986 46.5827C38.1915 46.7988 37.3415 46.6047 36.7196 46.065C36.5321 45.9072 36.2845 45.84 36.0429 45.8812C35.8013 45.9225 35.59 46.068 35.4655 46.2791C35.0126 47.0536 34.1756 47.5218 33.2786 47.5023C32.3816 47.4827 31.5658 46.9785 31.1471 46.185C30.9877 45.9357 30.7122 45.7849 30.4163 45.7849C30.1204 45.7849 29.8449 45.9357 29.6855 46.185C29.3048 46.9086 28.5901 47.3965 27.7775 47.4875C26.9649 47.5784 26.1601 47.2607 25.6288 46.6391C25.466 46.4648 25.2382 46.3658 24.9996 46.3658C24.7611 46.3658 24.5333 46.4648 24.3705 46.6391C23.8392 47.2607 23.0343 47.5784 22.2217 47.4875C21.4091 47.3965 20.6945 46.9086 20.3138 46.185C20.1544 45.9357 19.8789 45.7849 19.583 45.7849C19.2871 45.7849 19.0116 45.9357 18.8521 46.185C18.4335 46.9785 17.6176 47.4827 16.7207 47.5023C15.8237 47.5218 14.9866 47.0536 14.5338 46.2791C14.4091 46.0694 14.1987 45.9248 13.9582 45.8836C13.7177 45.8424 13.4712 45.9087 13.2838 46.065C12.6619 46.6047 11.8119 46.7988 11.0174 46.5827C10.2228 46.3666 9.58831 45.7686 9.32546 44.9883C9.24097 44.7419 9.04613 44.5492 8.79882 44.4674C8.55151 44.3856 8.28019 44.4242 8.06546 44.5716C7.6535 44.8534 7.1654 45.0028 6.6663 45C5.28558 45 4.1663 43.8807 4.1663 42.5V38C6.0816 39.3714 8.39511 40.0743 10.7496 40C13.7502 39.9558 16.6897 39.1451 19.2888 37.645C20.1694 37.155 21.0095 36.5958 21.8013 35.9725C22.8155 36.399 23.8999 36.6343 24.9996 36.6666C26.0984 36.6331 27.1816 36.3969 28.1946 35.97C28.9864 36.5933 29.8266 37.1525 30.7071 37.6425H30.7113C33.3099 39.1433 36.2491 39.9549 39.2496 40C41.6042 40.0743 43.9177 39.3714 45.833 38V42.5C45.833 43.163 45.5696 43.7989 45.1007 44.2677C44.6319 44.7366 43.996 45 43.333 45Z" fill="white"/>
<path d="M24.9991 39.0441C23.283 38.1331 21.1543 38.7142 20.1391 40.3708C19.9739 40.6185 19.9534 40.9356 20.0853 41.2025C20.2172 41.4695 20.4815 41.6458 20.7786 41.665C21.0757 41.6843 21.3606 41.5435 21.5258 41.2958C21.8247 40.7925 22.3231 40.4395 22.8972 40.3247C23.4712 40.2098 24.067 40.3438 24.5366 40.6933C24.8167 40.8801 25.1816 40.8801 25.4616 40.6933C25.7987 40.4926 26.1724 40.3609 26.5608 40.3058C27.3415 40.2086 28.1014 40.6022 28.4725 41.2958C28.6377 41.5435 28.9225 41.6843 29.2197 41.665C29.5168 41.6458 29.7811 41.4695 29.913 41.2025C30.0449 40.9356 30.0244 40.6185 29.8591 40.3708C28.8437 38.7145 26.7153 38.1335 24.9991 39.0441Z" fill="white"/>
</svg>
