<svg width="84" height="84" viewBox="0 0 84 84" fill="none" xmlns="http://www.w3.org/2000/svg">
<g opacity="0.9" filter="url(#filter0_bd_6901_5835)">
<rect x="22" width="36" height="36" rx="18" fill="white" fill-opacity="0.6" shape-rendering="crispEdges"/>
<path d="M43.2116 17.25H41.3686V15.75C41.3686 14.976 41.433 14.4885 42.5673 14.4885H43.2331C43.6564 14.4885 44 14.1525 44 13.7385V12.798C44 12.4058 43.6925 12.0705 43.2921 12.0443C42.8289 12.0135 42.3649 11.9993 41.9001 12C39.8194 12 38.3008 13.2428 38.3008 15.5243V17.25H36.7669C36.3436 17.25 36 17.586 36 18V19.5C36 19.914 36.3436 20.25 36.7669 20.25L38.3008 20.2493V26.25C38.3008 26.664 38.6444 27 39.0678 27H40.6017C41.025 27 41.3686 26.664 41.3686 26.25V20.2478L43.036 20.247C43.4256 20.247 43.753 19.9613 43.7975 19.5825L43.9732 18.0855C44.0261 17.6408 43.6702 17.25 43.2116 17.25Z" fill="#000F2E"/>
<path d="M31 17C31 13.2288 31 11.3431 32.1716 10.1716C33.3431 9 35.2288 9 39 9H41C44.7712 9 46.6569 9 47.8284 10.1716C49 11.3431 49 13.2288 49 17V19C49 22.7712 49 24.6569 47.8284 25.8284C46.6569 27 44.7712 27 41 27H39C35.2288 27 33.3431 27 32.1716 25.8284C31 24.6569 31 22.7712 31 19V17Z" stroke="#000F2E" stroke-width="2"/>
<rect x="22.5" y="0.5" width="35" height="35" rx="17.5" stroke="#F2F3F5" shape-rendering="crispEdges"/>
</g>
<defs>
<filter id="filter0_bd_6901_5835" x="-2" y="-24" width="86" height="108" filterUnits="userSpaceOnUse" color-interpolation-filters="sRGB">
<feFlood flood-opacity="0" result="BackgroundImageFix"/>
<feGaussianBlur in="BackgroundImageFix" stdDeviation="12"/>
<feComposite in2="SourceAlpha" operator="in" result="effect1_backgroundBlur_6901_5835"/>
<feColorMatrix in="SourceAlpha" type="matrix" values="0 0 0 0 0 0 0 0 0 0 0 0 0 0 0 0 0 0 127 0" result="hardAlpha"/>
<feMorphology radius="10" operator="erode" in="SourceAlpha" result="effect2_dropShadow_6901_5835"/>
<feOffset dx="2" dy="24"/>
<feGaussianBlur stdDeviation="17"/>
<feComposite in2="hardAlpha" operator="out"/>
<feColorMatrix type="matrix" values="0 0 0 0 0 0 0 0 0 0 0 0 0 0 0 0 0 0 0.04 0"/>
<feBlend mode="normal" in2="effect1_backgroundBlur_6901_5835" result="effect2_dropShadow_6901_5835"/>
<feBlend mode="normal" in="SourceGraphic" in2="effect2_dropShadow_6901_5835" result="shape"/>
</filter>
</defs>
</svg>
