<svg width="84" height="84" viewBox="0 0 84 84" fill="none" xmlns="http://www.w3.org/2000/svg">
<g opacity="0.9" filter="url(#filter0_bd_6901_5830)">
<rect x="22" width="36" height="36" rx="18" fill="white" fill-opacity="0.6" shape-rendering="crispEdges"/>
<path d="M31 17C31 13.2288 31 11.3431 32.1716 10.1716C33.3431 9 35.2288 9 39 9H41C44.7712 9 46.6569 9 47.8284 10.1716C49 11.3431 49 13.2288 49 17V19C49 22.7712 49 24.6569 47.8284 25.8284C46.6569 27 44.7712 27 41 27H39C35.2288 27 33.3431 27 32.1716 25.8284C31 24.6569 31 22.7712 31 19V17Z" stroke="#000F2E" stroke-width="2"/>
<circle cx="44.5" cy="13.5" r="1.5" fill="#000F2E"/>
<circle cx="40" cy="18" r="3" stroke="#000F2E" stroke-width="2"/>
<rect x="22.5" y="0.5" width="35" height="35" rx="17.5" stroke="#F2F3F5" shape-rendering="crispEdges"/>
</g>
<defs>
<filter id="filter0_bd_6901_5830" x="-2" y="-24" width="86" height="108" filterUnits="userSpaceOnUse" color-interpolation-filters="sRGB">
<feFlood flood-opacity="0" result="BackgroundImageFix"/>
<feGaussianBlur in="BackgroundImageFix" stdDeviation="12"/>
<feComposite in2="SourceAlpha" operator="in" result="effect1_backgroundBlur_6901_5830"/>
<feColorMatrix in="SourceAlpha" type="matrix" values="0 0 0 0 0 0 0 0 0 0 0 0 0 0 0 0 0 0 127 0" result="hardAlpha"/>
<feMorphology radius="10" operator="erode" in="SourceAlpha" result="effect2_dropShadow_6901_5830"/>
<feOffset dx="2" dy="24"/>
<feGaussianBlur stdDeviation="17"/>
<feComposite in2="hardAlpha" operator="out"/>
<feColorMatrix type="matrix" values="0 0 0 0 0 0 0 0 0 0 0 0 0 0 0 0 0 0 0.04 0"/>
<feBlend mode="normal" in2="effect1_backgroundBlur_6901_5830" result="effect2_dropShadow_6901_5830"/>
<feBlend mode="normal" in="SourceGraphic" in2="effect2_dropShadow_6901_5830" result="shape"/>
</filter>
</defs>
</svg>
