<svg width="996" height="180" viewBox="0 0 996 180" fill="none" xmlns="http://www.w3.org/2000/svg">
<g opacity="0.05">
<path d="M-191.812 -403.515L1171.7 362.6" stroke="black" stroke-linecap="square"/>
<path d="M-191.812 362.6L1171.7 -403.515" stroke="black" stroke-linecap="square"/>
<path d="M490.359 -403.515L1172.12 362.6" stroke="black" stroke-linecap="square"/>
<path d="M490.359 362.6L1172.12 -403.515" stroke="black" stroke-linecap="square"/>
<path d="M-192.227 -403.515L489.53 362.6" stroke="black" stroke-linecap="square"/>
<path d="M-192.227 362.6L489.53 -403.515" stroke="black" stroke-linecap="square"/>
<path d="M17.6594 57.8146V56.1832H15.9549V56.6641H17.0872V57.5955C17.0872 57.5955 16.7767 57.979 15.9062 57.979C15.0297 57.979 14.3418 57.358 14.3418 56.3232C14.3418 55.2883 15.0053 54.6674 15.8697 54.6674C16.5272 54.6674 16.9168 54.9718 17.1663 55.264L17.5681 54.8926C17.4098 54.7283 16.9472 54.1622 15.8697 54.1622C14.6766 54.1622 13.733 55.0144 13.733 56.3232C13.733 57.632 14.6766 58.4964 15.8758 58.4964C17.0689 58.4964 17.5803 57.8937 17.6594 57.8146Z" fill="black"/>
<path d="M-192.203 673.621L287.211 -404.199" stroke="black" stroke-linecap="square"/>
<path d="M286.789 -403.911L765.915 673.909" stroke="black" stroke-linecap="square"/>
<path d="M286.789 673.909L765.915 -403.911" stroke="black" stroke-linecap="square"/>
<path d="M767.789 -403.911L1245.92 673.909" stroke="black" stroke-linecap="square"/>
<path d="M767.789 673.909L1245.92 -403.911" stroke="black" stroke-linecap="square"/>
<path d="M766.922 -404.5V675.5" stroke="black" stroke-linecap="square"/>
<path d="M286.875 -404.5V675.5" stroke="black" stroke-linecap="square"/>
<path d="M523.836 -404.5V675.5" stroke="black" stroke-linecap="square"/>
<path d="M45.8359 -404.5V675.5" stroke="black" stroke-linecap="square"/>
</g>
</svg>
